<svg width="434" height="512" viewBox="0 0 434 512" fill="none" xmlns="http://www.w3.org/2000/svg">
<path d="M99.5111 107.164C88.4863 223.291 96.0219 270.579 138.945 315.175C153.13 328.351 164.417 344.489 172.044 362.506C179.67 380.524 183.466 400.016 183.173 419.662C182.892 444.471 181.534 469.64 179.577 495.16C178.758 505.83 169.152 513.695 158.626 511.686C115.93 503.536 81.4125 485.652 55.0789 458.019C18.3596 418.824 0 365.72 0 298.71V57.8416C0.000806291 41.4064 5.38411 27.8137 16.1462 17.0673C26.9088 5.68913 40.5201 0 56.9801 0C85.2467 0 107.378 24.2936 104.711 52.3931L99.5111 107.164Z" fill="#E76A39"/>
<path d="M377.02 0C393.48 0.000425717 407.092 5.68893 417.854 17.0673C428.616 27.8137 433.999 41.4064 434 57.8416V298.71C434 365.722 415.319 418.824 377.966 458.019C352.454 484.79 319.262 502.405 278.392 510.888C267.802 513.086 258.03 505.194 257.21 494.424C255.284 469.156 253.952 444.233 253.674 419.662C253.381 400.016 257.177 380.524 264.803 362.506C272.43 344.489 283.718 328.351 297.903 315.175C340.825 270.579 348.36 223.291 337.336 107.164L331.868 49.5627C329.344 22.9812 350.28 0 377.02 0Z" fill="#E76A39"/>
<path d="M181.448 198.26C181.884 202.756 180.59 207.247 177.849 210.78C172.509 217.664 161.024 217.664 155.684 210.78C152.944 207.247 151.658 202.755 152.095 198.26V14.6549C152.095 6.56121 158.666 0 166.771 0C174.877 0 181.448 6.56121 181.448 14.6549V198.26Z" fill="#E76A39"/>
<path d="M280.579 198.26C281.016 202.755 279.73 207.247 276.989 210.78C271.65 217.664 260.164 217.664 254.824 210.78C252.084 207.247 250.799 202.755 251.235 198.26V14.6502C251.235 6.55914 257.804 0 265.907 0C274.01 0 280.579 6.55914 280.579 14.6502V198.26Z" fill="#E76A39"/>
</svg>
