<svg width="161" height="84" viewBox="0 0 161 84" fill="none" xmlns="http://www.w3.org/2000/svg">
<path d="M14.5516 10.0291C17.3135 10.0291 19.3504 10.6977 20.6623 12.0349C21.9741 13.3378 22.8372 15.0351 23.2515 17.1266L22.3712 16.6637L22.7854 15.8408C23.1997 15.0522 23.8384 14.2122 24.7015 13.3207C25.5646 12.3949 26.6003 11.6234 27.8086 11.0063C29.0514 10.3548 30.4324 10.0291 31.9514 10.0291C34.4371 10.0291 36.3186 10.5605 37.596 11.6235C38.9079 12.6864 39.8055 14.1093 40.2888 15.8922C40.7721 17.6409 41.0138 19.5953 41.0138 21.7554V34.9218C41.0138 35.8133 40.7204 36.5676 40.1335 37.1848C39.5466 37.7676 38.8043 38.0591 37.9067 38.0591C37.0091 38.0591 36.2668 37.7676 35.6799 37.1848C35.093 36.5676 34.7996 35.8133 34.7996 34.9218V21.7554C34.7996 20.6239 34.6615 19.6124 34.3853 18.721C34.1091 17.7952 33.6085 17.058 32.8835 16.5094C32.1586 15.9608 31.1229 15.6865 29.7764 15.6865C28.4646 15.6865 27.3425 15.9608 26.4104 16.5094C25.4783 17.058 24.7705 17.7952 24.2872 18.721C23.8384 19.6124 23.614 20.6239 23.614 21.7554V34.9218C23.614 35.8133 23.3206 36.5676 22.7337 37.1848C22.1468 37.7676 21.4045 38.0591 20.5069 38.0591C19.6093 38.0591 18.867 37.7676 18.2801 37.1848C17.6932 36.5676 17.3998 35.8133 17.3998 34.9218V21.7554C17.3998 20.6239 17.2617 19.6124 16.9855 18.721C16.7093 17.7952 16.2087 17.058 15.4837 16.5094C14.7588 15.9608 13.7231 15.6865 12.3766 15.6865C11.0648 15.6865 9.94274 15.9608 9.01061 16.5094C8.07848 17.058 7.37075 17.7952 6.88742 18.721C6.43861 19.6124 6.21421 20.6239 6.21421 21.7554V34.9218C6.21421 35.8133 5.92076 36.5676 5.33387 37.1848C4.74697 37.7676 4.00472 38.0591 3.10711 38.0591C2.2095 38.0591 1.46724 37.7676 0.880347 37.1848C0.293449 36.5676 0 35.8133 0 34.9218V13.6807C0 12.7892 0.293449 12.052 0.880347 11.4692C1.46724 10.852 2.2095 10.5434 3.10711 10.5434C4.00472 10.5434 4.74697 10.852 5.33387 11.4692C5.92076 12.052 6.21421 12.7892 6.21421 13.6807V15.8922L5.43744 15.7379C5.74815 15.1551 6.17969 14.5379 6.73206 13.8864C7.28444 13.2007 7.95765 12.5664 8.75168 11.9835C9.54572 11.4006 10.4261 10.9377 11.3927 10.5948C12.3594 10.2177 13.4123 10.0291 14.5516 10.0291Z" fill="#3C7E41"/>
<path d="M52.6543 15.9587C52.0532 22.2571 52.4641 24.8217 54.8046 27.2404C55.5781 27.9551 56.1936 28.8303 56.6095 29.8075C57.0254 30.7847 57.2324 31.8419 57.2164 32.9074C57.2011 34.253 57.127 35.618 57.0203 37.0022C56.9757 37.5808 56.4518 38.0074 55.8779 37.8984C53.5496 37.4564 51.6674 36.4864 50.2315 34.9878C48.2292 32.862 47.228 29.9818 47.228 26.3474V13.2837C47.2281 12.3923 47.5216 11.6551 48.1085 11.0723C48.6954 10.4552 49.4376 10.1466 50.3351 10.1466C51.8765 10.1466 53.0833 11.4642 52.9379 12.9882L52.6543 15.9587Z" fill="#E76A39"/>
<path d="M67.7868 10.1466C68.6844 10.1466 69.4266 10.4552 70.0135 11.0723C70.6003 11.6551 70.8939 12.3923 70.8939 13.2837V26.3474C70.8939 29.9819 69.8753 32.862 67.8384 34.9878C66.4472 36.4397 64.6373 37.3951 62.4087 37.8551C61.8312 37.9744 61.2983 37.5463 61.2536 36.9622C61.1486 35.5918 61.076 34.24 61.0608 32.9074C61.0448 31.8419 61.2518 30.7847 61.6677 29.8075C62.0835 28.8303 62.6991 27.9551 63.4726 27.2404C65.8131 24.8217 66.224 22.257 65.6229 15.9587L65.3247 12.8347C65.1871 11.393 66.3287 10.1466 67.7868 10.1466Z" fill="#E76A39"/>
<path d="M57.1223 20.8994C57.1461 21.1433 57.0756 21.3869 56.9261 21.5785C56.6349 21.9519 56.0086 21.9519 55.7174 21.5785C55.568 21.3869 55.4979 21.1432 55.5217 20.8994V10.9414C55.5217 10.5025 55.88 10.1466 56.322 10.1466C56.764 10.1466 57.1223 10.5025 57.1223 10.9414V20.8994Z" fill="#E76A39"/>
<path d="M62.5279 20.8994C62.5517 21.1433 62.4816 21.3869 62.3322 21.5785C62.041 21.9519 61.4147 21.9519 61.1235 21.5785C60.9741 21.3869 60.904 21.1433 60.9278 20.8994V10.9412C60.9278 10.5024 61.286 10.1466 61.7279 10.1466C62.1697 10.1466 62.5279 10.5024 62.5279 10.9412V20.8994Z" fill="#E76A39"/>
<path d="M91.9187 10.0291C94.4734 10.0291 96.4067 10.5605 97.7186 11.6235C99.065 12.6864 99.9799 14.1093 100.463 15.8922C100.981 17.6409 101.24 19.5953 101.24 21.7554V34.9218C101.24 35.8133 100.947 36.5676 100.36 37.1848C99.7727 37.7676 99.0305 38.0591 98.1329 38.0591C97.2353 38.0591 96.493 37.7676 95.9061 37.1848C95.3192 36.5676 95.0258 35.8133 95.0258 34.9218V21.7554C95.0258 20.6239 94.8704 19.6124 94.5597 18.721C94.2835 17.7952 93.7657 17.058 93.0062 16.5094C92.2466 15.9608 91.1592 15.6865 89.7437 15.6865C88.3628 15.6865 87.189 15.9608 86.2223 16.5094C85.2902 17.058 84.5652 17.7952 84.0473 18.721C83.564 19.6124 83.3223 20.6239 83.3223 21.7554V34.9218C83.3223 35.8133 83.0289 36.5676 82.442 37.1848C81.8551 37.7676 81.1129 38.0591 80.2152 38.0591C79.3176 38.0591 78.5754 37.7676 77.9885 37.1848C77.4016 36.5676 77.1081 35.8133 77.1081 34.9218V13.6807C77.1081 12.7892 77.4016 12.052 77.9885 11.4692C78.5754 10.852 79.3176 10.5434 80.2152 10.5434C81.1129 10.5434 81.8551 10.852 82.442 11.4692C83.0289 12.052 83.3223 12.7892 83.3223 13.6807V15.8922L82.5456 15.7379C82.8563 15.1551 83.3051 14.5379 83.892 13.8864C84.4789 13.2007 85.1694 12.5664 85.9634 11.9835C86.7574 11.4006 87.655 10.9377 88.6562 10.5948C89.6574 10.2177 90.7449 10.0291 91.9187 10.0291Z" fill="#3C7E41"/>
<path d="M121.074 9.51477C123.042 9.51477 124.75 9.7205 126.2 10.1319C127.685 10.5434 128.824 11.1263 129.618 11.8806C130.447 12.6006 130.861 13.475 130.861 14.5036C130.861 15.1893 130.654 15.8408 130.24 16.458C129.825 17.0409 129.221 17.3323 128.427 17.3323C127.875 17.3323 127.409 17.2637 127.029 17.1266C126.684 16.9551 126.373 16.7494 126.097 16.5094C125.821 16.2694 125.493 16.0465 125.113 15.8408C124.768 15.6351 124.233 15.4808 123.508 15.3779C122.817 15.2408 122.299 15.1722 121.954 15.1722C120.193 15.1722 118.692 15.5494 117.449 16.3037C116.24 17.058 115.308 18.0866 114.652 19.3896C113.996 20.6582 113.668 22.1326 113.668 23.8126C113.668 25.4584 113.996 26.9328 114.652 28.2357C115.343 29.5044 116.275 30.5158 117.449 31.2702C118.657 32.0245 120.038 32.4016 121.592 32.4016C122.455 32.4016 123.197 32.3502 123.818 32.2474C124.44 32.1445 124.958 31.9902 125.372 31.7845C125.855 31.5102 126.287 31.2187 126.666 30.9101C127.046 30.6016 127.616 30.4473 128.375 30.4473C129.273 30.4473 129.963 30.7387 130.447 31.3216C130.93 31.8702 131.172 32.5559 131.172 33.3788C131.172 34.236 130.688 35.0246 129.722 35.7447C128.755 36.4304 127.478 36.9962 125.89 37.4419C124.336 37.8534 122.645 38.0591 120.815 38.0591C118.087 38.0591 115.723 37.4419 113.72 36.2076C111.718 34.9389 110.164 33.2246 109.06 31.0644C107.989 28.9043 107.454 26.4871 107.454 23.8126C107.454 21.0011 108.024 18.5324 109.163 16.4066C110.337 14.2464 111.942 12.5664 113.979 11.3663C116.051 10.1319 118.415 9.51477 121.074 9.51477Z" fill="#3C7E41"/>
<path d="M151.938 10.0291C154.423 10.0291 156.305 10.5605 157.582 11.6234C158.894 12.6864 159.792 14.1093 160.275 15.8922C160.758 17.6409 161 19.5953 161 21.7554V34.9218C161 35.8133 160.707 36.5676 160.12 37.1848C159.533 37.7676 158.79 38.0591 157.893 38.0591C156.995 38.0591 156.253 37.7676 155.666 37.1848C155.079 36.5676 154.786 35.8133 154.786 34.9218V21.7554C154.786 20.6239 154.648 19.6124 154.371 18.721C154.095 17.7952 153.595 17.058 152.87 16.5094C152.145 15.9608 151.109 15.6865 149.763 15.6865C148.451 15.6865 147.329 15.9608 146.397 16.5094C145.464 17.058 144.757 17.7952 144.273 18.721C143.825 19.6124 143.6 20.6239 143.6 21.7554V34.9218C143.6 35.8133 143.307 36.5676 142.72 37.1848C142.133 37.7676 141.391 38.0591 140.493 38.0591C139.595 38.0591 138.853 37.7676 138.266 37.1848C137.679 36.5676 137.386 35.8133 137.386 34.9218V3.1373C137.386 2.24583 137.679 1.50865 138.266 0.925759C138.853 0.308586 139.595 0 140.493 0C141.391 0 142.133 0.308586 142.72 0.925759C143.307 1.50865 143.6 2.24583 143.6 3.1373V15.8922L142.823 15.7379C143.134 15.1551 143.566 14.5379 144.118 13.8864C144.67 13.2007 145.344 12.5664 146.138 11.9835C146.932 11.4006 147.812 10.9377 148.779 10.5948C149.745 10.2177 150.798 10.0291 151.938 10.0291Z" fill="#3C7E41"/>
<path d="M5.46574 69.445C5.12051 68.9649 4.96515 68.3478 4.99968 67.5934C5.0342 66.8391 5.483 66.1877 6.34609 65.6391C6.89846 65.2962 7.48536 65.159 8.10678 65.2276C8.7282 65.2619 9.33236 65.5705 9.91926 66.1534C10.9204 67.1477 11.9734 67.9192 13.0782 68.4678C14.1829 69.0164 15.5638 69.2907 17.221 69.2907C17.7388 69.2564 18.3084 69.1878 18.9299 69.0849C19.5513 68.9478 20.0864 68.6735 20.5352 68.262C21.0185 67.8163 21.2602 67.1477 21.2602 66.2562C21.2602 65.5019 21.0013 64.9019 20.4834 64.4561C19.9656 64.0104 19.2751 63.6332 18.412 63.3247C17.5835 63.0161 16.6513 62.7246 15.6156 62.4503C14.5454 62.1417 13.4406 61.7989 12.3014 61.4217C11.1966 61.0445 10.1782 60.5645 9.24605 59.9816C8.31392 59.3645 7.55441 58.5587 6.96751 57.5644C6.38061 56.57 6.08716 55.3185 6.08716 53.8099C6.08716 52.0955 6.57049 50.6383 7.53715 49.4382C8.5038 48.2382 9.74664 47.3124 11.2657 46.6609C12.8192 46.0095 14.4418 45.6838 16.1335 45.6838C17.2037 45.6838 18.3257 45.8209 19.4995 46.0952C20.6733 46.3352 21.7953 46.7467 22.8655 47.3296C23.9358 47.8782 24.8334 48.6153 25.5584 49.5411C25.9381 50.0554 26.1625 50.6726 26.2316 51.3926C26.3006 52.1127 25.9726 52.7641 25.2477 53.347C24.7298 53.7585 24.1256 53.947 23.4352 53.9128C22.7447 53.8442 22.1751 53.6042 21.7263 53.1927C21.1394 52.4384 20.3453 51.8384 19.3442 51.3926C18.3775 50.9469 17.2555 50.724 15.9781 50.724C15.4603 50.724 14.8906 50.7926 14.2692 50.9297C13.6823 51.0326 13.1645 51.2898 12.7157 51.7012C12.2669 52.0784 12.0425 52.6955 12.0425 53.5527C12.0425 54.3413 12.3014 54.9757 12.8192 55.4557C13.3371 55.9014 14.0275 56.2786 14.8906 56.5872C15.7882 56.8615 16.7376 57.1358 17.7388 57.4101C18.7745 57.6844 19.8275 58.0101 20.8977 58.3873C21.9679 58.7644 22.9518 59.2616 23.8495 59.8788C24.7471 60.4959 25.4721 61.3017 26.0244 62.296C26.5768 63.2561 26.853 64.4904 26.853 65.9991C26.853 67.7477 26.3351 69.2392 25.2994 70.4736C24.2637 71.7079 22.9691 72.6508 21.4156 73.3023C19.862 73.9195 18.2739 74.2281 16.6513 74.2281C14.6144 74.2281 12.5776 73.8852 10.5407 73.1994C8.5038 72.4794 6.81215 71.2279 5.46574 69.445Z" fill="#3C7E41"/>
<path d="M47.4117 45.6838C49.8283 45.6838 51.986 46.3009 53.8848 47.5353C55.8181 48.7353 57.3372 50.3983 58.4419 52.5241C59.5812 54.6499 60.1508 57.1186 60.1508 59.9302C60.1508 62.7418 59.5812 65.2276 58.4419 67.3877C57.3372 69.5135 55.8354 71.1936 53.9366 72.428C52.0723 73.628 49.9664 74.2281 47.6188 74.2281C46.2379 74.2281 44.9433 74.0052 43.7349 73.5595C42.5266 73.1137 41.4564 72.548 40.5243 71.8622C39.6267 71.1765 38.9189 70.4907 38.4011 69.805C37.9178 69.0849 37.6761 68.4849 37.6761 68.0049L39.2814 67.3363V80.8627C39.2814 81.7542 38.988 82.4913 38.4011 83.0742C37.8142 83.6914 37.0719 84 36.1743 84C35.2767 84 34.5345 83.7085 33.9476 83.1257C33.3607 82.5428 33.0672 81.7885 33.0672 80.8627V49.3354C33.0672 48.4439 33.3607 47.7067 33.9476 47.1238C34.5345 46.5067 35.2767 46.1981 36.1743 46.1981C37.0719 46.1981 37.8142 46.5067 38.4011 47.1238C38.988 47.7067 39.2814 48.4439 39.2814 49.3354V51.8555L38.4011 51.3926C38.4011 50.9469 38.6427 50.4154 39.1261 49.7982C39.6094 49.1468 40.2653 48.5125 41.0939 47.8953C41.9225 47.2438 42.8719 46.7124 43.9421 46.3009C45.0468 45.8895 46.2034 45.6838 47.4117 45.6838ZM46.6349 51.3412C45.1159 51.3412 43.7867 51.7183 42.6475 52.4727C41.5082 53.227 40.6106 54.2556 39.9546 55.5585C39.3332 56.8272 39.0225 58.2844 39.0225 59.9302C39.0225 61.5417 39.3332 63.0161 39.9546 64.3533C40.6106 65.6562 41.5082 66.6848 42.6475 67.4391C43.7867 68.1935 45.1159 68.5706 46.6349 68.5706C48.1539 68.5706 49.4658 68.1935 50.5706 67.4391C51.7099 66.6848 52.5902 65.6562 53.2116 64.3533C53.8676 63.0161 54.1955 61.5417 54.1955 59.9302C54.1955 58.2844 53.8676 56.8272 53.2116 55.5585C52.5902 54.2556 51.7099 53.227 50.5706 52.4727C49.4658 51.7183 48.1539 51.3412 46.6349 51.3412Z" fill="#3C7E41"/>
<path d="M90.3415 45.6838C91.2392 45.6838 91.9814 45.9752 92.5683 46.5581C93.1552 47.141 93.4486 47.8953 93.4486 48.8211V70.5764C93.4486 71.4679 93.1552 72.2222 92.5683 72.8394C91.9814 73.4223 91.2392 73.7138 90.3415 73.7138C89.4439 73.7138 88.7017 73.4223 88.1148 72.8394C87.5279 72.2222 87.2344 71.4679 87.2344 70.5764V68.0563L88.3737 68.5192C88.3737 68.9649 88.132 69.5135 87.6487 70.165C87.1654 70.7822 86.5094 71.3994 85.6809 72.0165C84.8523 72.6337 83.8684 73.1652 82.7291 73.6109C81.6244 74.0223 80.4161 74.2281 79.1042 74.2281C76.7221 74.2281 74.5643 73.628 72.631 72.428C70.6977 71.1936 69.1614 69.5135 68.0221 67.3877C66.9174 65.2276 66.365 62.7589 66.365 59.9816C66.365 57.1701 66.9174 54.7014 68.0221 52.5755C69.1614 50.4154 70.6805 48.7353 72.5792 47.5353C74.478 46.3009 76.584 45.6838 78.897 45.6838C80.3815 45.6838 81.7452 45.9066 82.9881 46.3524C84.2309 46.7981 85.3011 47.3638 86.1987 48.0496C87.1309 48.7353 87.8386 49.4382 88.3219 50.1583C88.8398 50.844 89.0987 51.4269 89.0987 51.9069L87.2344 52.5755V48.8211C87.2344 47.9296 87.5279 47.1924 88.1148 46.6095C88.7017 45.9923 89.4439 45.6838 90.3415 45.6838ZM79.881 68.5706C81.4 68.5706 82.7291 68.1935 83.8684 67.4391C85.0077 66.6848 85.888 65.6562 86.5094 64.3533C87.1654 63.0504 87.4934 61.5931 87.4934 59.9816C87.4934 58.3358 87.1654 56.8615 86.5094 55.5585C85.888 54.2556 85.0077 53.227 83.8684 52.4727C82.7291 51.7183 81.4 51.3412 79.881 51.3412C78.3964 51.3412 77.0845 51.7183 75.9453 52.4727C74.806 53.227 73.9084 54.2556 73.2524 55.5585C72.631 56.8615 72.3203 58.3358 72.3203 59.9816C72.3203 61.5931 72.631 63.0504 73.2524 64.3533C73.9084 65.6562 74.806 66.6848 75.9453 67.4391C77.0845 68.1935 78.3964 68.5706 79.881 68.5706Z" fill="#3C7E41"/>
<path d="M113.282 45.6838C115.25 45.6838 116.959 45.8895 118.409 46.3009C119.894 46.7124 121.033 47.2953 121.827 48.0496C122.655 48.7696 123.07 49.644 123.07 50.6726C123.07 51.3583 122.863 52.0098 122.448 52.627C122.034 53.2099 121.43 53.5013 120.636 53.5013C120.083 53.5013 119.617 53.4327 119.238 53.2956C118.892 53.1241 118.582 52.9184 118.306 52.6784C118.029 52.4384 117.701 52.2155 117.322 52.0098C116.976 51.8041 116.441 51.6498 115.716 51.5469C115.026 51.4098 114.508 51.3412 114.163 51.3412C112.402 51.3412 110.9 51.7183 109.657 52.4727C108.449 53.227 107.517 54.2556 106.861 55.5585C106.205 56.8272 105.877 58.3015 105.877 59.9816C105.877 61.6274 106.205 63.1018 106.861 64.4047C107.551 65.6733 108.484 66.6848 109.657 67.4391C110.866 68.1935 112.247 68.5706 113.8 68.5706C114.663 68.5706 115.406 68.5192 116.027 68.4163C116.648 68.3135 117.166 68.1592 117.581 67.9535C118.064 67.6792 118.495 67.3877 118.875 67.0791C119.255 66.7705 119.825 66.6162 120.584 66.6162C121.482 66.6162 122.172 66.9077 122.655 67.4906C123.139 68.0392 123.38 68.7249 123.38 69.5478C123.38 70.405 122.897 71.1936 121.93 71.9137C120.964 72.5994 119.686 73.1652 118.098 73.6109C116.545 74.0223 114.853 74.2281 113.023 74.2281C110.296 74.2281 107.931 73.6109 105.929 72.3765C103.927 71.1079 102.373 69.3935 101.268 67.2334C100.198 65.0733 99.6629 62.6561 99.6629 59.9816C99.6629 57.1701 100.232 54.7014 101.372 52.5755C102.546 50.4154 104.151 48.7353 106.188 47.5353C108.259 46.3009 110.624 45.6838 113.282 45.6838Z" fill="#3C7E41"/>
<path d="M143.939 74.2281C141.005 74.2281 138.45 73.628 136.275 72.428C134.134 71.1936 132.477 69.5307 131.304 67.4391C130.164 65.3476 129.595 62.9818 129.595 60.3416C129.595 57.2558 130.216 54.6328 131.459 52.4727C132.736 50.2783 134.393 48.5982 136.43 47.4324C138.467 46.2666 140.625 45.6838 142.903 45.6838C144.664 45.6838 146.321 46.0438 147.875 46.7638C149.463 47.4838 150.861 48.4782 152.069 49.7468C153.278 50.9812 154.227 52.4212 154.918 54.067C155.643 55.7128 156.005 57.4615 156.005 59.313C155.971 60.1359 155.643 60.8045 155.021 61.3188C154.4 61.8332 153.675 62.0903 152.846 62.0903H133.064L131.511 56.9472H150.516L149.377 57.9758V56.5872C149.308 55.5928 148.945 54.7014 148.289 53.9128C147.668 53.1241 146.874 52.507 145.907 52.0612C144.975 51.5812 143.974 51.3412 142.903 51.3412C141.868 51.3412 140.901 51.4783 140.003 51.7526C139.106 52.0269 138.329 52.4898 137.673 53.1413C137.017 53.7927 136.499 54.6671 136.12 55.7643C135.74 56.8615 135.55 58.2501 135.55 59.9302C135.55 61.7817 135.93 63.3589 136.689 64.6619C137.483 65.9305 138.484 66.9077 139.693 67.5934C140.936 68.2449 142.247 68.5706 143.628 68.5706C144.906 68.5706 145.924 68.4678 146.684 68.262C147.443 68.0563 148.047 67.8163 148.496 67.542C148.98 67.2334 149.411 66.9763 149.791 66.7705C150.412 66.462 150.999 66.3077 151.552 66.3077C152.311 66.3077 152.932 66.5648 153.416 67.0791C153.934 67.5934 154.193 68.1935 154.193 68.8792C154.193 69.805 153.709 70.645 152.743 71.3994C151.845 72.1537 150.585 72.8223 148.962 73.4052C147.34 73.9538 145.665 74.2281 143.939 74.2281Z" fill="#3C7E41"/>
</svg>
