<svg width="34" height="31" viewBox="0 0 34 31" fill="none" xmlns="http://www.w3.org/2000/svg">
<path fill-rule="evenodd" clip-rule="evenodd" d="M24.1105 7.2C24.1105 11.1765 20.8869 14.4 16.9104 14.4C12.934 14.4 9.71045 11.1765 9.71045 7.2C9.71045 3.22355 12.934 0 16.9104 0C20.8869 0 24.1105 3.22355 24.1105 7.2ZM21.7104 7.2C21.7104 9.85097 19.5614 12 16.9104 12C14.2595 12 12.1104 9.85097 12.1104 7.2C12.1104 4.54903 14.2595 2.4 16.9104 2.4C19.5614 2.4 21.7104 4.54903 21.7104 7.2Z" fill="#141414"/>
<path d="M16.9105 18C9.14119 18 2.52158 22.5941 0 29.0305C0.614274 29.6404 1.26137 30.2174 1.93839 30.7585C3.81608 24.8492 9.70651 20.4 16.9105 20.4C24.1144 20.4 30.0048 24.8492 31.8825 30.7585C32.5595 30.2174 33.2066 29.6404 33.8209 29.0305C31.2993 22.5941 24.6797 18 16.9105 18Z" fill="#141414"/>
</svg>
