<svg width="13" height="13" viewBox="0 0 13 13" fill="none" xmlns="http://www.w3.org/2000/svg">
<path d="M12 3.50087H9.8075C9.83187 3.48025 9.85687 3.46025 9.88062 3.43837C10.0704 3.26973 10.2234 3.06374 10.33 2.83328C10.4366 2.60282 10.4944 2.35285 10.5 2.099C10.5082 1.82129 10.4596 1.54484 10.3571 1.28661C10.2546 1.02839 10.1004 0.793832 9.90397 0.597351C9.70755 0.40087 9.47304 0.246608 9.21484 0.144035C8.95664 0.0414631 8.68021 -0.00725475 8.4025 0.000872589C8.14855 0.0063425 7.89845 0.0641756 7.66788 0.170752C7.4373 0.277328 7.23121 0.430353 7.0625 0.620248C6.82905 0.890807 6.63927 1.19615 6.5 1.52525C6.36073 1.19615 6.17095 0.890807 5.9375 0.620248C5.76879 0.430353 5.5627 0.277328 5.33212 0.170752C5.10155 0.0641756 4.85146 0.0063425 4.5975 0.000872589C4.31979 -0.00725475 4.04336 0.0414631 3.78516 0.144035C3.52696 0.246608 3.29245 0.40087 3.09603 0.597351C2.89961 0.793832 2.74542 1.02839 2.64292 1.28661C2.54043 1.54484 2.49179 1.82129 2.5 2.099C2.50556 2.35285 2.56343 2.60282 2.67 2.83328C2.77658 3.06374 2.92956 3.26973 3.11938 3.43837C3.14313 3.459 3.16813 3.479 3.1925 3.50087H1C0.734784 3.50087 0.48043 3.60623 0.292893 3.79377C0.105357 3.9813 0 4.23566 0 4.50087V6.50087C0 6.76609 0.105357 7.02044 0.292893 7.20798C0.48043 7.39552 0.734784 7.50087 1 7.50087V11.5009C1 11.7661 1.10536 12.0204 1.29289 12.208C1.48043 12.3955 1.73478 12.5009 2 12.5009H11C11.2652 12.5009 11.5196 12.3955 11.7071 12.208C11.8946 12.0204 12 11.7661 12 11.5009V7.50087C12.2652 7.50087 12.5196 7.39552 12.7071 7.20798C12.8946 7.02044 13 6.76609 13 6.50087V4.50087C13 4.23566 12.8946 3.9813 12.7071 3.79377C12.5196 3.60623 12.2652 3.50087 12 3.50087ZM7.8125 1.28275C7.89167 1.19532 7.98805 1.12521 8.09561 1.07681C8.20316 1.02841 8.31956 1.00277 8.4375 1.0015H8.46813C8.60636 1.00236 8.74302 1.03081 8.87012 1.08517C8.99721 1.13953 9.11218 1.21871 9.20828 1.31807C9.30439 1.41743 9.37969 1.53498 9.42978 1.66381C9.47987 1.79265 9.50375 1.93019 9.5 2.06837C9.49873 2.18631 9.47309 2.30271 9.42469 2.41026C9.37629 2.51782 9.30617 2.61421 9.21875 2.69337C8.62562 3.21837 7.64125 3.40337 7.03125 3.46837C7.10625 2.8065 7.3125 1.84462 7.8125 1.28275ZM3.80688 1.30525C4.00059 1.11155 4.26294 1.00217 4.53687 1.00087H4.5675C4.68544 1.00214 4.80184 1.02779 4.90939 1.07618C5.01695 1.12458 5.11333 1.1947 5.1925 1.28212C5.71688 1.87462 5.90188 2.85712 5.96688 3.46462C5.35938 3.40212 4.37687 3.21462 3.78438 2.69025C3.69695 2.61108 3.62684 2.51469 3.57844 2.40714C3.53004 2.29958 3.5044 2.18318 3.50313 2.06525C3.49925 1.92477 3.52395 1.78497 3.57574 1.65432C3.62752 1.52368 3.70531 1.40492 3.80438 1.30525H3.80688ZM1 4.50087H6V6.50087H1V4.50087ZM2 7.50087H6V11.5009H2V7.50087ZM11 11.5009H7V7.50087H11V11.5009ZM12 6.50087H7V4.50087H12V6.50087Z" fill="#E76A39"/>
</svg>
