<svg width="20" height="20" viewBox="0 0 20 20" fill="none" xmlns="http://www.w3.org/2000/svg">
<path d="M5.07812 3.90625H8.75C10.5178 3.90625 11.4017 3.90625 11.9508 4.45542C12.5 5.00459 12.5 5.88848 12.5 7.65625V14.6875H7.1875M2.96875 14.6875H4.63672" stroke="#5A5A5A" stroke-linecap="round"/>
<path d="M12.3072 8.125H13.5547C14.3577 8.125 14.7593 8.125 15.1167 8.28033C15.4742 8.43566 15.7481 8.72916 16.2961 9.31617L16.7125 9.76234C16.9916 10.0612 17.1309 10.2106 17.233 10.3807C17.3391 10.5577 17.4153 10.751 17.4584 10.9528C17.5 11.1467 17.5 11.3511 17.5 11.76V13.1516C17.5 13.9999 16.8123 14.6875 15.9641 14.6875M10.625 14.6875H13.2945" stroke="#5A5A5A"/>
<path d="M5.70312 16.25C6.52292 16.25 7.1875 15.5854 7.1875 14.7656C7.1875 13.9458 6.52292 13.2812 5.70312 13.2812C4.88333 13.2812 4.21875 13.9458 4.21875 14.7656C4.21875 15.5854 4.88333 16.25 5.70312 16.25Z" stroke="#5A5A5A"/>
<path d="M14.9219 16.25C15.7417 16.25 16.4062 15.5854 16.4062 14.7656C16.4062 13.9458 15.7417 13.2812 14.9219 13.2812C14.1021 13.2812 13.4375 13.9458 13.4375 14.7656C13.4375 15.5854 14.1021 16.25 14.9219 16.25Z" stroke="#5A5A5A"/>
<path d="M2.96875 6.09375H6.71875M2.34375 8.59375H5.15625M2.96875 11.0937H6.40625" stroke="#5A5A5A" stroke-linecap="round"/>
</svg>
