<svg width="17" height="19" viewBox="0 0 17 19" fill="none" xmlns="http://www.w3.org/2000/svg">
<path d="M9.94176 16.8333C9.79525 17.0859 9.58496 17.2955 9.33195 17.4413C9.07893 17.587 8.79207 17.6637 8.50009 17.6637C8.20811 17.6637 7.92125 17.587 7.66824 17.4413C7.41522 17.2955 7.20493 17.0859 7.05842 16.8333M13.5001 6C13.5001 4.67392 12.9733 3.40215 12.0356 2.46447C11.0979 1.52678 9.82617 1 8.50009 1C7.17401 1 5.90224 1.52678 4.96456 2.46447C4.02688 3.40215 3.50009 4.67392 3.50009 6C3.50009 11.8333 1.00009 13.5 1.00009 13.5H16.0001C16.0001 13.5 13.5001 11.8333 13.5001 6Z" stroke="#1E1E1E" stroke-width="2" stroke-linecap="round" stroke-linejoin="round"/>
</svg>
