<svg width="12" height="15" viewBox="0 0 12 15" fill="none" xmlns="http://www.w3.org/2000/svg">
<path d="M6 2.5C4.81331 2.5 3.65328 2.85189 2.66658 3.51118C1.67989 4.17047 0.910851 5.10754 0.456726 6.2039C0.00259972 7.30026 -0.11622 8.50666 0.115291 9.67054C0.346802 10.8344 0.918247 11.9035 1.75736 12.7426C2.59648 13.5818 3.66558 14.1532 4.82946 14.3847C5.99335 14.6162 7.19975 14.4974 8.2961 14.0433C9.39246 13.5892 10.3295 12.8201 10.9888 11.8334C11.6481 10.8467 12 9.68669 12 8.5C11.9982 6.90926 11.3655 5.38419 10.2406 4.25937C9.11581 3.13455 7.59074 2.50182 6 2.5ZM6 13C5.10999 13 4.23996 12.7361 3.49994 12.2416C2.75992 11.7471 2.18314 11.0443 1.84254 10.2221C1.50195 9.39981 1.41284 8.49501 1.58647 7.62209C1.7601 6.74918 2.18869 5.94736 2.81802 5.31802C3.44736 4.68868 4.24918 4.2601 5.1221 4.08647C5.99501 3.91283 6.89981 4.00195 7.72208 4.34254C8.54435 4.68314 9.24715 5.25991 9.74162 5.99993C10.2361 6.73996 10.5 7.60998 10.5 8.5C10.4987 9.69307 10.0241 10.8369 9.18052 11.6805C8.33689 12.5241 7.19307 12.9987 6 13ZM8.28063 5.96938C8.35055 6.03905 8.40602 6.12185 8.44388 6.21301C8.48173 6.30418 8.50122 6.40192 8.50122 6.50063C8.50122 6.59934 8.48173 6.69708 8.44388 6.78824C8.40602 6.8794 8.35055 6.9622 8.28063 7.03188L6.53063 8.78188C6.38973 8.92277 6.19864 9.00193 5.99938 9.00193C5.80012 9.00193 5.60902 8.92277 5.46813 8.78188C5.32723 8.64098 5.24808 8.44988 5.24808 8.25063C5.24808 8.05137 5.32723 7.86027 5.46813 7.71938L7.21813 5.96938C7.28781 5.89946 7.3706 5.84398 7.46176 5.80612C7.55293 5.76827 7.65067 5.74878 7.74938 5.74878C7.84809 5.74878 7.94583 5.76827 8.03699 5.80612C8.12816 5.84398 8.21095 5.89946 8.28063 5.96938ZM3.75 0.75C3.75 0.551088 3.82902 0.360322 3.96967 0.21967C4.11032 0.0790176 4.30109 0 4.5 0H7.5C7.69892 2.96403e-09 7.88968 0.0790176 8.03033 0.21967C8.17099 0.360322 8.25 0.551088 8.25 0.75C8.25 0.948913 8.17099 1.13968 8.03033 1.28033C7.88968 1.42098 7.69892 1.5 7.5 1.5H4.5C4.30109 1.5 4.11032 1.42098 3.96967 1.28033C3.82902 1.13968 3.75 0.948913 3.75 0.75Z" fill="#E76A39"/>
</svg>
