<svg width="100" height="100" viewBox="0 0 100 100" fill="none" xmlns="http://www.w3.org/2000/svg">
<path d="M84.3906 91.7812C84.3906 96.3281 68.9844 100 50 100C31.0156 100 15.6094 96.3281 15.6094 91.7812C15.6094 87.7188 27.9531 84.375 44.1406 83.6875H55.8594C72.0625 84.375 84.3906 87.7188 84.3906 91.7812Z" fill="#E3E2E1"/>
<path d="M50 0C32.3437 0 18.0312 14.2969 18.0312 31.9531C18.0312 49.6094 50 91.7812 50 91.7812C50 91.7812 81.9531 49.6094 81.9531 31.9531C81.9531 14.2969 67.6562 0 50 0ZM50 53.1094C38.3125 53.1094 28.8437 43.6406 28.8437 31.9531C28.8437 20.2656 38.3125 10.7969 50 10.7969C61.6875 10.7969 71.1562 20.2656 71.1562 31.9531C71.1562 43.6406 61.6875 53.1094 50 53.1094Z" fill="#E82327"/>
</svg>
