<svg width="32" height="32" viewBox="0 0 32 32" fill="none" xmlns="http://www.w3.org/2000/svg">
<path d="M23.4293 5.53187C25.4256 7.59249 26.4237 10.3075 26.4237 13.0331C26.4326 15.9001 25.318 18.6564 23.3187 20.7112L15.8893 29.5606L8.57057 20.8206C4.54182 16.6606 4.5787 9.83749 8.6812 5.64124C10.7506 3.50624 13.4593 2.43937 16.1531 2.43937C17.5117 2.43802 18.8566 2.71126 20.107 3.24269C21.3573 3.77411 22.4874 4.55276 23.4293 5.53187ZM20.9262 12.4994C20.9261 11.5251 20.637 10.5727 20.0957 9.76266C19.5543 8.95262 18.7849 8.32131 17.8847 7.94855C16.9845 7.57579 15.9941 7.47832 15.0385 7.66847C14.0829 7.85863 13.2052 8.32785 12.5163 9.01683C11.8275 9.7058 11.3583 10.5836 11.1683 11.5392C10.9783 12.4947 11.0759 13.4852 11.4487 14.3853C11.8216 15.2854 12.453 16.0548 13.2631 16.5961C14.0732 17.1373 15.0257 17.4262 15.9999 17.4262C16.6469 17.4262 17.2876 17.2988 17.8853 17.0512C18.483 16.8036 19.0261 16.4406 19.4835 15.9831C19.941 15.5256 20.3038 14.9825 20.5514 14.3847C20.7989 13.787 20.9263 13.1463 20.9262 12.4994Z" fill="#E76A39"/>
<path d="M16 7.57312C16.9744 7.57306 17.9269 7.86195 18.7372 8.40327C19.5474 8.94458 20.1789 9.714 20.5518 10.6142C20.9247 11.5144 21.0223 12.505 20.8322 13.4607C20.6421 14.4164 20.1729 15.2943 19.4839 15.9833C18.7949 16.6723 17.917 17.1415 16.9613 17.3316C16.0057 17.5217 15.0151 17.4241 14.1148 17.0512C13.2146 16.6783 12.4452 16.0468 11.9039 15.2365C11.3626 14.4263 11.0737 13.4738 11.0737 12.4994C11.0737 11.1929 11.5928 9.93985 12.5166 9.016C13.4405 8.09216 14.6935 7.57314 16 7.57312Z" fill="#DDF3D4"/>
<rect x="6" y="30" width="20" height="2" rx="1" fill="url(#paint0_radial_808_1558)"/>
<defs>
<radialGradient id="paint0_radial_808_1558" cx="0" cy="0" r="1" gradientUnits="userSpaceOnUse" gradientTransform="translate(16 31) scale(10 1)">
<stop stop-color="#6D6D6D"/>
<stop offset="0.785" stop-color="#838383" stop-opacity="0.2"/>
<stop offset="1" stop-color="#999999" stop-opacity="0"/>
</radialGradient>
</defs>
</svg>
